<svg xmlns="http://www.w3.org/2000/svg" xmlns:xlink="http://www.w3.org/1999/xlink" width="160" zoomAndPan="magnify" viewBox="0 0 120 119.999999" height="160" preserveAspectRatio="xMidYMid meet" version="1.0"><defs><g/><clipPath id="0dad7f519f"><path d="M 58 11.242188 L 62 11.242188 L 62 19 L 58 19 Z M 58 11.242188 " clip-rule="nonzero"/></clipPath><clipPath id="cc6f3ac901"><path d="M 58 101 L 62 101 L 62 108.742188 L 58 108.742188 Z M 58 101 " clip-rule="nonzero"/></clipPath><clipPath id="578d28d731"><path d="M 81 25 L 101.378906 25 L 101.378906 95 L 81 95 Z M 81 25 " clip-rule="nonzero"/></clipPath><clipPath id="1370793ef8"><path d="M 18.878906 25 L 39 25 L 39 95 L 18.878906 95 Z M 18.878906 25 " clip-rule="nonzero"/></clipPath></defs><rect x="-12" width="144" fill="#ffffff" y="-12" height="143.999998" fill-opacity="1"/><rect x="-12" width="144" fill="#ffffff" y="-12" height="143.999998" fill-opacity="1"/><rect x="-12" width="144" fill="#c4cdcb" y="-12" height="143.999998" fill-opacity="1"/><path fill="#f0f8ff" d="M 68.113281 21.695312 C 68.679688 21.667969 69.207031 21.511719 69.691406 21.222656 C 69.914062 21.078125 70.152344 20.976562 70.410156 20.914062 C 70.695312 20.863281 70.949219 20.921875 71.179688 21.097656 C 71.511719 21.351562 71.195312 21.742188 71.269531 22.050781 C 71.285156 22.089844 71.3125 22.105469 71.355469 22.09375 C 71.394531 22.082031 71.414062 22.058594 71.410156 22.015625 C 71.335938 21.710938 70.792969 21.066406 70.621094 21.699219 C 70.472656 22.25 71.21875 22.382812 71.484375 21.972656 C 71.765625 21.519531 71.402344 20.9375 70.941406 20.789062 C 70.609375 20.703125 70.289062 20.738281 69.984375 20.894531 C 69.335938 21.183594 68.863281 21.511719 68.121094 21.539062 C 68.027344 21.539062 68.027344 21.6875 68.121094 21.683594 Z M 68.113281 21.695312 " fill-opacity="1" fill-rule="nonzero"/><g clip-path="url(#0dad7f519f)"><path fill="#f0f8ff" d="M 61.640625 15.035156 C 61.640625 15.527344 61.597656 16 61.511719 16.453125 C 61.429688 16.910156 61.308594 17.308594 61.152344 17.65625 C 60.996094 18.003906 60.816406 18.273438 60.613281 18.460938 C 60.410156 18.648438 60.199219 18.742188 59.980469 18.742188 C 59.757812 18.742188 59.546875 18.648438 59.34375 18.460938 C 59.140625 18.273438 58.960938 18.003906 58.804688 17.65625 C 58.648438 17.308594 58.53125 16.910156 58.445312 16.453125 C 58.363281 16 58.320312 15.527344 58.320312 15.035156 C 58.320312 14.542969 58.363281 14.070312 58.445312 13.617188 C 58.53125 13.160156 58.648438 12.761719 58.804688 12.414062 C 58.960938 12.066406 59.140625 11.796875 59.34375 11.609375 C 59.546875 11.421875 59.757812 11.328125 59.980469 11.328125 C 60.199219 11.328125 60.410156 11.421875 60.613281 11.609375 C 60.816406 11.796875 60.996094 12.066406 61.152344 12.414062 C 61.308594 12.761719 61.429688 13.160156 61.511719 13.617188 C 61.597656 14.070312 61.640625 14.542969 61.640625 15.035156 Z M 61.640625 15.035156 " fill-opacity="1" fill-rule="nonzero"/></g><path fill="#f0f8ff" d="M 65.042969 14.671875 C 65.140625 14.75 65.191406 14.875 65.191406 15.054688 C 65.191406 15.234375 65.148438 15.453125 65.054688 15.707031 C 64.960938 15.960938 64.828125 16.234375 64.65625 16.523438 C 64.484375 16.8125 64.28125 17.101562 64.054688 17.382812 C 63.828125 17.664062 63.589844 17.921875 63.34375 18.15625 C 63.097656 18.386719 62.859375 18.574219 62.628906 18.71875 C 62.402344 18.867188 62.199219 18.957031 62.023438 18.992188 C 61.847656 19.03125 61.710938 19.011719 61.613281 18.933594 C 61.519531 18.855469 61.46875 18.730469 61.464844 18.550781 C 61.464844 18.371094 61.511719 18.152344 61.601562 17.898438 C 61.695312 17.644531 61.828125 17.375 62.003906 17.082031 C 62.175781 16.792969 62.375 16.503906 62.601562 16.222656 C 62.832031 15.941406 63.066406 15.683594 63.316406 15.453125 C 63.5625 15.21875 63.800781 15.03125 64.027344 14.886719 C 64.257812 14.738281 64.460938 14.648438 64.636719 14.613281 C 64.8125 14.574219 64.949219 14.59375 65.042969 14.671875 Z M 65.042969 14.671875 " fill-opacity="1" fill-rule="nonzero"/><path fill="#f0f8ff" d="M 57.375 16.167969 C 57.601562 16.453125 57.800781 16.738281 57.976562 17.027344 C 58.148438 17.320312 58.28125 17.589844 58.375 17.847656 C 58.46875 18.101562 58.511719 18.316406 58.511719 18.496094 C 58.507812 18.675781 58.460938 18.804688 58.363281 18.878906 C 58.265625 18.957031 58.132812 18.976562 57.957031 18.941406 C 57.78125 18.902344 57.578125 18.8125 57.347656 18.667969 C 57.121094 18.519531 56.882812 18.332031 56.632812 18.101562 C 56.386719 17.867188 56.148438 17.613281 55.921875 17.328125 C 55.695312 17.046875 55.496094 16.761719 55.320312 16.46875 C 55.148438 16.179688 55.015625 15.90625 54.921875 15.652344 C 54.828125 15.398438 54.785156 15.179688 54.785156 15.003906 C 54.789062 14.824219 54.835938 14.695312 54.933594 14.617188 C 55.03125 14.539062 55.164062 14.519531 55.339844 14.558594 C 55.519531 14.59375 55.71875 14.6875 55.949219 14.832031 C 56.179688 14.976562 56.414062 15.164062 56.664062 15.398438 C 56.910156 15.628906 57.148438 15.886719 57.375 16.167969 Z M 57.375 16.167969 " fill-opacity="1" fill-rule="nonzero"/><path fill="#f0f8ff" d="M 60.855469 19.964844 C 60.855469 20.207031 60.769531 20.414062 60.597656 20.582031 C 60.429688 20.753906 60.222656 20.839844 59.980469 20.839844 C 59.738281 20.839844 59.53125 20.753906 59.359375 20.582031 C 59.1875 20.414062 59.101562 20.207031 59.101562 19.964844 C 59.101562 19.726562 59.1875 19.519531 59.359375 19.347656 C 59.53125 19.179688 59.738281 19.09375 59.980469 19.09375 C 60.222656 19.09375 60.429688 19.179688 60.597656 19.347656 C 60.769531 19.519531 60.855469 19.726562 60.855469 19.964844 Z M 60.855469 19.964844 " fill-opacity="1" fill-rule="nonzero"/><path fill="#f0f8ff" d="M 73.585938 21 C 73.910156 20.96875 74.484375 20.917969 75.128906 20.917969 C 75.9375 20.894531 76.738281 20.972656 77.527344 21.152344 C 78.347656 21.339844 79.171875 21.6875 79.703125 22.339844 C 79.984375 22.738281 80.230469 23.15625 80.445312 23.59375 C 80.667969 24.046875 81.003906 24.382812 81.460938 24.601562 C 81.128906 24.710938 80.785156 24.761719 80.433594 24.753906 C 80.082031 24.742188 79.742188 24.675781 79.417969 24.546875 C 79.089844 24.417969 78.796875 24.234375 78.53125 24.003906 C 78.269531 23.769531 78.054688 23.5 77.890625 23.191406 C 77.84375 23.625 77.65625 23.992188 77.328125 24.285156 C 77.152344 23.753906 76.882812 23.277344 76.523438 22.847656 C 75.035156 21.082031 72.609375 21.15625 72.207031 21.175781 C 72.5625 21.113281 73.03125 21.046875 73.585938 21 Z M 73.585938 21 " fill-opacity="1" fill-rule="nonzero"/><path fill="#f0f8ff" d="M 62.839844 19.585938 C 63.433594 19.785156 64.027344 19.972656 64.632812 20.136719 C 65.234375 20.296875 65.839844 20.449219 66.449219 20.566406 C 67.675781 20.804688 68.910156 20.964844 70.15625 21.046875 C 70.777344 21.09375 71.402344 21.117188 72.023438 21.109375 C 72.644531 21.105469 73.265625 21.050781 73.894531 21.050781 C 74.527344 21.050781 75.152344 21.097656 75.777344 21.191406 C 76.394531 21.289062 77.003906 21.429688 77.601562 21.621094 C 76.996094 21.46875 76.382812 21.355469 75.761719 21.285156 C 75.144531 21.210938 74.523438 21.183594 73.898438 21.203125 C 73.28125 21.230469 72.65625 21.289062 72.023438 21.296875 C 71.394531 21.300781 70.769531 21.296875 70.140625 21.25 C 68.886719 21.160156 67.644531 20.984375 66.417969 20.722656 C 65.191406 20.445312 64 20.066406 62.839844 19.585938 Z M 62.839844 19.585938 " fill-opacity="1" fill-rule="nonzero"/><path fill="#f0f8ff" d="M 46.632812 21 C 46.308594 20.96875 45.734375 20.917969 45.085938 20.917969 C 44.277344 20.894531 43.480469 20.972656 42.691406 21.152344 C 41.871094 21.339844 41.042969 21.6875 40.515625 22.339844 C 40.234375 22.738281 39.988281 23.15625 39.773438 23.59375 C 39.550781 24.046875 39.214844 24.382812 38.757812 24.601562 C 39.089844 24.710938 39.433594 24.761719 39.785156 24.753906 C 40.136719 24.742188 40.472656 24.675781 40.800781 24.546875 C 41.128906 24.417969 41.421875 24.234375 41.683594 24.003906 C 41.949219 23.769531 42.164062 23.5 42.328125 23.191406 C 42.375 23.628906 42.5625 23.992188 42.890625 24.285156 C 43.070312 23.75 43.339844 23.269531 43.703125 22.84375 C 45.195312 21.074219 47.617188 21.152344 48.019531 21.171875 C 47.65625 21.113281 47.1875 21.046875 46.632812 21 Z M 46.632812 21 " fill-opacity="1" fill-rule="nonzero"/><path fill="#f0f8ff" d="M 57.378906 19.585938 C 56.785156 19.785156 56.1875 19.972656 55.585938 20.136719 C 54.984375 20.296875 54.378906 20.449219 53.765625 20.566406 C 52.542969 20.804688 51.304688 20.964844 50.0625 21.046875 C 49.4375 21.09375 48.816406 21.117188 48.195312 21.109375 C 47.574219 21.105469 46.953125 21.050781 46.324219 21.050781 C 45.691406 21.050781 45.066406 21.097656 44.441406 21.191406 C 43.824219 21.289062 43.214844 21.429688 42.617188 21.621094 C 43.222656 21.46875 43.835938 21.355469 44.457031 21.285156 C 45.074219 21.210938 45.695312 21.183594 46.316406 21.203125 C 46.9375 21.230469 47.5625 21.289062 48.195312 21.296875 C 48.824219 21.300781 49.449219 21.296875 50.078125 21.25 C 51.332031 21.160156 52.574219 20.984375 53.800781 20.722656 C 55.027344 20.445312 56.21875 20.066406 57.378906 19.585938 Z M 57.378906 19.585938 " fill-opacity="1" fill-rule="nonzero"/><path fill="#f0f8ff" d="M 61.707031 20.3125 C 62.085938 20.511719 62.488281 20.605469 62.914062 20.605469 C 63.113281 20.59375 63.304688 20.621094 63.492188 20.679688 C 63.699219 20.75 63.84375 20.886719 63.925781 21.085938 C 64.039062 21.375 63.691406 21.515625 63.617188 21.730469 C 63.597656 21.796875 63.703125 21.828125 63.726562 21.761719 C 63.792969 21.546875 63.6875 20.917969 63.335938 21.261719 C 63.03125 21.558594 63.460938 21.925781 63.785156 21.757812 C 64.109375 21.589844 64.125 21.0625 63.886719 20.792969 C 63.699219 20.613281 63.472656 20.515625 63.210938 20.507812 C 62.6875 20.449219 62.257812 20.476562 61.761719 20.222656 C 61.703125 20.191406 61.648438 20.285156 61.707031 20.316406 Z M 61.707031 20.3125 " fill-opacity="1" fill-rule="nonzero"/><path fill="#f0f8ff" d="M 61.21875 19.957031 C 61.21875 20.117188 61.1875 20.277344 61.125 20.429688 C 61.0625 20.578125 60.972656 20.710938 60.855469 20.828125 C 60.738281 20.945312 60.605469 21.035156 60.453125 21.097656 C 60.300781 21.160156 60.144531 21.191406 59.980469 21.191406 C 59.816406 21.191406 59.65625 21.160156 59.503906 21.097656 C 59.355469 21.035156 59.21875 20.945312 59.105469 20.828125 C 58.988281 20.710938 58.898438 20.578125 58.835938 20.429688 C 58.773438 20.277344 58.742188 20.117188 58.742188 19.957031 C 58.742188 19.871094 58.75 19.785156 58.765625 19.703125 L 58.683594 19.703125 C 58.667969 19.785156 58.660156 19.871094 58.660156 19.957031 C 58.660156 20.128906 58.691406 20.296875 58.757812 20.460938 C 58.828125 20.621094 58.921875 20.761719 59.046875 20.886719 C 59.167969 21.007812 59.3125 21.105469 59.472656 21.171875 C 59.636719 21.238281 59.804688 21.273438 59.980469 21.273438 C 60.15625 21.273438 60.324219 21.238281 60.484375 21.171875 C 60.648438 21.105469 60.789062 21.007812 60.914062 20.886719 C 61.039062 20.761719 61.132812 20.621094 61.199219 20.460938 C 61.265625 20.296875 61.300781 20.128906 61.300781 19.957031 C 61.300781 19.871094 61.292969 19.785156 61.277344 19.703125 L 61.1875 19.703125 C 61.207031 19.785156 61.21875 19.871094 61.21875 19.957031 Z M 61.21875 19.957031 " fill-opacity="1" fill-rule="nonzero"/><path fill="#f0f8ff" d="M 58.214844 20.21875 C 57.742188 20.464844 57.335938 20.460938 56.824219 20.496094 C 56.570312 20.503906 56.347656 20.585938 56.148438 20.75 C 55.871094 21.007812 55.839844 21.570312 56.214844 21.761719 C 56.511719 21.914062 56.9375 21.621094 56.6875 21.300781 C 56.605469 21.179688 56.496094 21.148438 56.363281 21.210938 C 56.164062 21.316406 56.222656 21.597656 56.273438 21.765625 C 56.292969 21.828125 56.398438 21.800781 56.378906 21.734375 C 56.3125 21.519531 56.0625 21.433594 56.058594 21.1875 C 56.078125 20.96875 56.191406 20.8125 56.394531 20.722656 C 56.613281 20.625 56.839844 20.589844 57.078125 20.609375 C 57.5 20.609375 57.898438 20.511719 58.269531 20.316406 C 58.332031 20.285156 58.269531 20.191406 58.214844 20.222656 Z M 58.214844 20.21875 " fill-opacity="1" fill-rule="nonzero"/><path fill="#f0f8ff" d="M 66.175781 18.335938 C 66.289062 18.28125 66.40625 18.269531 66.527344 18.304688 C 66.734375 18.375 66.855469 18.515625 66.890625 18.734375 C 66.933594 19.070312 66.585938 19.378906 66.339844 19.5 C 65.824219 19.757812 65.058594 19.523438 64.503906 18.855469 C 64.65625 19.238281 64.914062 19.53125 65.273438 19.730469 C 65.636719 19.933594 66.019531 20 66.425781 19.929688 C 67.226562 19.769531 67.894531 18.984375 67.753906 18.222656 C 67.613281 17.464844 66.675781 16.894531 66.183594 17.109375 C 65.894531 17.234375 65.636719 17.664062 65.769531 17.996094 C 65.855469 18.167969 65.992188 18.28125 66.175781 18.335938 Z M 66.175781 18.335938 " fill-opacity="1" fill-rule="nonzero"/><path fill="#f0f8ff" d="M 52.171875 20.046875 C 51.605469 20.019531 51.078125 19.859375 50.589844 19.574219 C 50.371094 19.429688 50.128906 19.324219 49.875 19.265625 C 49.589844 19.214844 49.332031 19.273438 49.101562 19.449219 C 48.773438 19.703125 49.089844 20.09375 49.015625 20.402344 C 48.996094 20.441406 48.96875 20.453125 48.929688 20.445312 C 48.886719 20.433594 48.871094 20.40625 48.875 20.367188 C 48.949219 20.0625 49.492188 19.414062 49.660156 20.050781 C 49.8125 20.601562 49.0625 20.734375 48.796875 20.320312 C 48.519531 19.871094 48.878906 19.289062 49.339844 19.136719 C 49.675781 19.054688 49.992188 19.089844 50.300781 19.246094 C 50.949219 19.535156 51.421875 19.859375 52.164062 19.890625 C 52.257812 19.890625 52.257812 20.039062 52.164062 20.035156 Z M 52.171875 20.046875 " fill-opacity="1" fill-rule="nonzero"/><path fill="#f0f8ff" d="M 53.988281 18.199219 C 53.875 18.140625 53.753906 18.128906 53.632812 18.164062 C 53.425781 18.234375 53.308594 18.378906 53.273438 18.59375 C 53.230469 18.929688 53.578125 19.238281 53.824219 19.363281 C 54.339844 19.621094 55.101562 19.382812 55.660156 18.714844 C 55.507812 19.097656 55.25 19.390625 54.890625 19.59375 C 54.527344 19.792969 54.144531 19.859375 53.738281 19.792969 C 52.9375 19.628906 52.269531 18.84375 52.410156 18.082031 C 52.550781 17.324219 53.476562 16.753906 53.980469 16.96875 C 54.269531 17.09375 54.53125 17.527344 54.394531 17.855469 C 54.308594 18.027344 54.171875 18.140625 53.988281 18.199219 Z M 53.988281 18.199219 " fill-opacity="1" fill-rule="nonzero"/><g clip-path="url(#cc6f3ac901)"><path fill="#f0f8ff" d="M 61.769531 104.957031 C 61.769531 105.449219 61.726562 105.921875 61.644531 106.375 C 61.558594 106.832031 61.4375 107.230469 61.28125 107.578125 C 61.128906 107.925781 60.949219 108.195312 60.746094 108.382812 C 60.542969 108.570312 60.328125 108.667969 60.109375 108.667969 C 59.890625 108.667969 59.675781 108.570312 59.472656 108.382812 C 59.269531 108.195312 59.089844 107.925781 58.933594 107.578125 C 58.78125 107.230469 58.660156 106.832031 58.574219 106.375 C 58.492188 105.921875 58.449219 105.449219 58.449219 104.957031 C 58.449219 104.464844 58.492188 103.992188 58.574219 103.539062 C 58.660156 103.082031 58.78125 102.683594 58.933594 102.335938 C 59.089844 101.988281 59.269531 101.71875 59.472656 101.53125 C 59.675781 101.34375 59.890625 101.25 60.109375 101.25 C 60.328125 101.25 60.542969 101.34375 60.746094 101.53125 C 60.949219 101.71875 61.128906 101.988281 61.28125 102.335938 C 61.4375 102.683594 61.558594 103.082031 61.644531 103.539062 C 61.726562 103.992188 61.769531 104.464844 61.769531 104.957031 Z M 61.769531 104.957031 " fill-opacity="1" fill-rule="nonzero"/></g><path fill="#f0f8ff" d="M 58.472656 101.066406 C 58.570312 101.140625 58.621094 101.269531 58.621094 101.449219 C 58.621094 101.628906 58.578125 101.847656 58.484375 102.101562 C 58.390625 102.355469 58.257812 102.625 58.085938 102.917969 C 57.914062 103.207031 57.710938 103.496094 57.484375 103.777344 C 57.257812 104.058594 57.019531 104.316406 56.773438 104.546875 C 56.527344 104.78125 56.289062 104.96875 56.058594 105.113281 C 55.832031 105.257812 55.628906 105.351562 55.453125 105.386719 C 55.277344 105.425781 55.140625 105.40625 55.042969 105.328125 C 54.949219 105.25 54.898438 105.125 54.898438 104.945312 C 54.894531 104.765625 54.941406 104.546875 55.03125 104.292969 C 55.125 104.039062 55.257812 103.765625 55.433594 103.476562 C 55.605469 103.1875 55.804688 102.898438 56.03125 102.617188 C 56.261719 102.335938 56.496094 102.078125 56.746094 101.84375 C 56.992188 101.613281 57.230469 101.425781 57.457031 101.28125 C 57.6875 101.132812 57.890625 101.042969 58.066406 101.003906 C 58.242188 100.96875 58.378906 100.988281 58.472656 101.066406 Z M 58.472656 101.066406 " fill-opacity="1" fill-rule="nonzero"/><path fill="#f0f8ff" d="M 64.164062 102.652344 C 64.390625 102.933594 64.59375 103.222656 64.765625 103.511719 C 64.9375 103.800781 65.070312 104.074219 65.164062 104.328125 C 65.257812 104.582031 65.304688 104.800781 65.300781 104.980469 C 65.300781 105.160156 65.25 105.285156 65.152344 105.363281 C 65.058594 105.441406 64.921875 105.460938 64.746094 105.421875 C 64.570312 105.386719 64.367188 105.292969 64.136719 105.148438 C 63.910156 105.003906 63.671875 104.816406 63.425781 104.582031 C 63.175781 104.351562 62.941406 104.09375 62.714844 103.8125 C 62.484375 103.53125 62.285156 103.242188 62.113281 102.953125 C 61.9375 102.660156 61.804688 102.390625 61.710938 102.136719 C 61.621094 101.882812 61.574219 101.664062 61.578125 101.484375 C 61.578125 101.304688 61.628906 101.175781 61.722656 101.101562 C 61.820312 101.023438 61.957031 101.003906 62.132812 101.039062 C 62.308594 101.078125 62.511719 101.167969 62.738281 101.316406 C 62.96875 101.460938 63.207031 101.648438 63.453125 101.878906 C 63.699219 102.113281 63.9375 102.371094 64.164062 102.652344 Z M 64.164062 102.652344 " fill-opacity="1" fill-rule="nonzero"/><path fill="#f0f8ff" d="M 60.984375 100.027344 C 60.984375 100.269531 60.898438 100.472656 60.730469 100.644531 C 60.558594 100.816406 60.351562 100.898438 60.109375 100.898438 C 59.867188 100.898438 59.660156 100.816406 59.488281 100.644531 C 59.316406 100.472656 59.234375 100.269531 59.234375 100.027344 C 59.234375 99.785156 59.320312 99.578125 59.488281 99.410156 C 59.660156 99.238281 59.867188 99.152344 60.109375 99.152344 C 60.351562 99.152344 60.558594 99.238281 60.730469 99.410156 C 60.898438 99.578125 60.984375 99.785156 60.984375 100.027344 Z M 60.984375 100.027344 " fill-opacity="1" fill-rule="nonzero"/><path fill="#f0f8ff" d="M 46.511719 98.992188 C 46.183594 99.023438 45.609375 99.074219 44.964844 99.074219 C 44.15625 99.101562 43.359375 99.023438 42.570312 98.847656 C 41.746094 98.660156 40.921875 98.3125 40.390625 97.660156 C 40.109375 97.261719 39.863281 96.84375 39.648438 96.40625 C 39.429688 95.953125 39.089844 95.617188 38.632812 95.398438 C 38.964844 95.289062 39.308594 95.238281 39.65625 95.25 C 40.007812 95.257812 40.34375 95.328125 40.671875 95.457031 C 40.996094 95.585938 41.289062 95.765625 41.550781 96 C 41.8125 96.230469 42.027344 96.5 42.191406 96.808594 C 42.238281 96.371094 42.425781 96.007812 42.753906 95.714844 C 42.929688 96.246094 43.199219 96.722656 43.558594 97.152344 C 45.050781 98.917969 47.472656 98.839844 47.875 98.820312 C 47.527344 98.878906 47.058594 98.945312 46.511719 98.992188 Z M 46.511719 98.992188 " fill-opacity="1" fill-rule="nonzero"/><path fill="#f0f8ff" d="M 57.25 100.40625 C 56.65625 100.207031 56.058594 100.019531 55.457031 99.855469 C 54.855469 99.695312 54.25 99.542969 53.636719 99.425781 C 52.414062 99.1875 51.175781 99.027344 49.929688 98.945312 C 49.3125 98.898438 48.6875 98.875 48.066406 98.882812 C 47.445312 98.890625 46.824219 98.941406 46.191406 98.941406 C 45.5625 98.945312 44.9375 98.894531 44.3125 98.800781 C 43.691406 98.703125 43.082031 98.554688 42.488281 98.359375 C 43.09375 98.515625 43.703125 98.625 44.324219 98.695312 C 44.945312 98.769531 45.566406 98.796875 46.1875 98.777344 C 46.808594 98.75 47.433594 98.691406 48.0625 98.6875 C 48.695312 98.679688 49.320312 98.6875 49.945312 98.734375 C 51.199219 98.824219 52.441406 99 53.671875 99.265625 C 54.898438 99.542969 56.089844 99.921875 57.25 100.40625 Z M 57.25 100.40625 " fill-opacity="1" fill-rule="nonzero"/><path fill="#f0f8ff" d="M 73.457031 98.992188 C 73.78125 99.023438 74.355469 99.074219 75 99.074219 C 75.808594 99.101562 76.609375 99.023438 77.398438 98.847656 C 78.21875 98.660156 79.042969 98.3125 79.574219 97.660156 C 79.855469 97.261719 80.101562 96.84375 80.316406 96.40625 C 80.535156 95.953125 80.875 95.617188 81.332031 95.398438 C 81 95.289062 80.65625 95.238281 80.304688 95.246094 C 79.953125 95.253906 79.613281 95.324219 79.289062 95.453125 C 78.960938 95.582031 78.664062 95.761719 78.402344 95.996094 C 78.140625 96.230469 77.925781 96.5 77.757812 96.808594 C 77.714844 96.371094 77.527344 96.007812 77.199219 95.714844 C 77.023438 96.246094 76.753906 96.722656 76.394531 97.152344 C 74.902344 98.917969 72.480469 98.839844 72.078125 98.820312 C 72.433594 98.878906 72.902344 98.945312 73.457031 98.992188 Z M 73.457031 98.992188 " fill-opacity="1" fill-rule="nonzero"/><path fill="#f0f8ff" d="M 62.710938 100.40625 C 63.304688 100.207031 63.898438 100.019531 64.5 99.855469 C 65.105469 99.695312 65.710938 99.542969 66.320312 99.425781 C 67.550781 99.1875 68.789062 99.027344 70.039062 98.945312 C 70.660156 98.898438 71.28125 98.875 71.902344 98.878906 C 72.523438 98.886719 73.148438 98.941406 73.777344 98.941406 C 74.40625 98.941406 75.035156 98.894531 75.65625 98.796875 C 76.277344 98.699219 76.886719 98.550781 77.484375 98.355469 C 76.878906 98.511719 76.265625 98.625 75.644531 98.691406 C 75.027344 98.765625 74.40625 98.792969 73.78125 98.773438 C 73.160156 98.75 72.535156 98.691406 71.90625 98.683594 C 71.273438 98.679688 70.648438 98.683594 70.023438 98.730469 C 68.769531 98.820312 67.527344 99 66.296875 99.261719 C 65.070312 99.539062 63.871094 99.921875 62.710938 100.40625 Z M 62.710938 100.40625 " fill-opacity="1" fill-rule="nonzero"/><path fill="#f0f8ff" d="M 58.382812 99.671875 C 58.007812 99.476562 57.609375 99.378906 57.1875 99.378906 C 56.988281 99.386719 56.796875 99.363281 56.609375 99.304688 C 56.402344 99.234375 56.257812 99.097656 56.175781 98.898438 C 56.0625 98.609375 56.410156 98.476562 56.484375 98.25 C 56.503906 98.1875 56.398438 98.15625 56.378906 98.222656 C 56.308594 98.4375 56.414062 99.070312 56.765625 98.726562 C 57.070312 98.429688 56.640625 98.058594 56.316406 98.226562 C 55.992188 98.394531 55.976562 98.921875 56.214844 99.191406 C 56.398438 99.371094 56.617188 99.46875 56.875 99.488281 C 57.394531 99.542969 57.828125 99.515625 58.320312 99.769531 C 58.382812 99.800781 58.4375 99.707031 58.375 99.675781 Z M 58.382812 99.671875 " fill-opacity="1" fill-rule="nonzero"/><path fill="#f0f8ff" d="M 58.871094 100.039062 C 58.871094 99.875 58.902344 99.714844 58.964844 99.566406 C 59.027344 99.414062 59.117188 99.28125 59.234375 99.164062 C 59.351562 99.050781 59.484375 98.960938 59.636719 98.898438 C 59.789062 98.835938 59.945312 98.804688 60.109375 98.804688 C 60.273438 98.804688 60.429688 98.835938 60.582031 98.898438 C 60.734375 98.960938 60.867188 99.050781 60.984375 99.164062 C 61.101562 99.28125 61.191406 99.414062 61.253906 99.566406 C 61.316406 99.714844 61.347656 99.875 61.347656 100.039062 C 61.347656 100.121094 61.339844 100.207031 61.324219 100.289062 L 61.40625 100.289062 C 61.421875 100.207031 61.429688 100.121094 61.429688 100.039062 C 61.429688 99.863281 61.394531 99.695312 61.328125 99.535156 C 61.261719 99.371094 61.164062 99.230469 61.042969 99.105469 C 60.917969 98.984375 60.773438 98.886719 60.613281 98.820312 C 60.449219 98.753906 60.28125 98.722656 60.105469 98.722656 C 59.933594 98.722656 59.761719 98.753906 59.601562 98.820312 C 59.441406 98.886719 59.296875 98.984375 59.171875 99.105469 C 59.050781 99.230469 58.953125 99.371094 58.886719 99.535156 C 58.820312 99.695312 58.785156 99.863281 58.785156 100.039062 C 58.785156 100.121094 58.792969 100.207031 58.808594 100.289062 L 58.894531 100.289062 C 58.878906 100.207031 58.871094 100.121094 58.871094 100.039062 Z M 58.871094 100.039062 " fill-opacity="1" fill-rule="nonzero"/><path fill="#f0f8ff" d="M 61.871094 99.773438 C 62.347656 99.527344 62.753906 99.53125 63.261719 99.496094 C 63.515625 99.488281 63.742188 99.402344 63.9375 99.242188 C 64.21875 98.980469 64.246094 98.425781 63.875 98.234375 C 63.578125 98.078125 63.152344 98.371094 63.402344 98.691406 C 63.484375 98.8125 63.59375 98.84375 63.726562 98.78125 C 63.925781 98.675781 63.863281 98.394531 63.816406 98.226562 C 63.796875 98.160156 63.691406 98.191406 63.710938 98.257812 C 63.777344 98.472656 64.023438 98.558594 64.03125 98.804688 C 64.011719 99.027344 63.898438 99.183594 63.695312 99.277344 C 63.476562 99.371094 63.25 99.410156 63.011719 99.386719 C 62.589844 99.386719 62.191406 99.484375 61.820312 99.679688 C 61.757812 99.710938 61.820312 99.804688 61.871094 99.773438 Z M 61.871094 99.773438 " fill-opacity="1" fill-rule="nonzero"/><path fill="#f0f8ff" d="M 53.910156 101.65625 C 53.800781 101.710938 53.683594 101.722656 53.558594 101.691406 C 53.351562 101.617188 53.230469 101.476562 53.199219 101.257812 C 53.15625 100.921875 53.503906 100.613281 53.75 100.492188 C 54.265625 100.234375 55.03125 100.46875 55.585938 101.136719 C 55.429688 100.753906 55.175781 100.460938 54.8125 100.261719 C 54.453125 100.058594 54.070312 99.992188 53.660156 100.0625 C 52.863281 100.222656 52.195312 101.011719 52.335938 101.769531 C 52.472656 102.527344 53.414062 103.097656 53.90625 102.882812 C 54.191406 102.757812 54.453125 102.328125 54.316406 101.996094 C 54.230469 101.824219 54.097656 101.710938 53.910156 101.65625 Z M 53.910156 101.65625 " fill-opacity="1" fill-rule="nonzero"/><path fill="#f0f8ff" d="M 67.917969 99.945312 C 68.484375 99.972656 69.011719 100.132812 69.5 100.417969 C 69.71875 100.5625 69.957031 100.667969 70.214844 100.726562 C 70.5 100.777344 70.757812 100.71875 70.984375 100.546875 C 71.316406 100.292969 71 99.898438 71.074219 99.589844 C 71.089844 99.550781 71.121094 99.539062 71.160156 99.546875 C 71.199219 99.558594 71.21875 99.585938 71.214844 99.625 C 71.140625 99.933594 70.597656 100.578125 70.425781 99.941406 C 70.277344 99.390625 71.023438 99.257812 71.289062 99.671875 C 71.570312 100.121094 71.207031 100.703125 70.75 100.855469 C 70.414062 100.9375 70.09375 100.902344 69.789062 100.746094 C 69.140625 100.460938 68.667969 100.132812 67.925781 100.089844 C 67.832031 100.089844 67.832031 99.941406 67.925781 99.945312 Z M 67.917969 99.945312 " fill-opacity="1" fill-rule="nonzero"/><path fill="#f0f8ff" d="M 66.101562 101.796875 C 66.214844 101.851562 66.332031 101.863281 66.457031 101.828125 C 66.660156 101.757812 66.78125 101.613281 66.8125 101.398438 C 66.859375 101.0625 66.507812 100.753906 66.261719 100.632812 C 65.75 100.371094 64.984375 100.609375 64.429688 101.277344 C 64.582031 100.894531 64.839844 100.601562 65.199219 100.402344 C 65.558594 100.199219 65.945312 100.132812 66.351562 100.199219 C 67.152344 100.363281 67.820312 101.148438 67.679688 101.910156 C 67.539062 102.667969 66.609375 103.238281 66.109375 103.019531 C 65.820312 102.898438 65.558594 102.464844 65.695312 102.136719 C 65.78125 101.964844 65.917969 101.851562 66.101562 101.796875 Z M 66.101562 101.796875 " fill-opacity="1" fill-rule="nonzero"/><g clip-path="url(#578d28d731)"><path fill="#f0f8ff" d="M 82.457031 25.527344 C 82.421875 25.675781 82.382812 25.820312 82.34375 25.96875 C 83.054688 26.429688 83.753906 26.914062 84.433594 27.417969 C 85.117188 27.925781 85.785156 28.449219 86.433594 28.996094 C 87.082031 29.542969 87.714844 30.109375 88.328125 30.695312 C 88.941406 31.28125 89.539062 31.886719 90.113281 32.507812 C 90.691406 33.132812 91.246094 33.773438 91.78125 34.429688 C 92.316406 35.089844 92.832031 35.761719 93.324219 36.453125 C 93.820312 37.140625 94.289062 37.847656 94.738281 38.566406 C 95.1875 39.285156 95.617188 40.015625 96.019531 40.761719 C 96.421875 41.507812 96.800781 42.265625 97.15625 43.035156 C 97.511719 43.804688 97.84375 44.585938 98.152344 45.375 C 98.457031 46.164062 98.738281 46.964844 98.996094 47.773438 C 99.25 48.578125 99.484375 49.394531 99.6875 50.214844 C 99.894531 51.039062 100.074219 51.867188 100.226562 52.699219 C 100.378906 53.53125 100.507812 54.371094 100.605469 55.210938 C 100.707031 56.054688 100.78125 56.894531 100.832031 57.742188 C 100.878906 58.589844 100.898438 59.433594 100.894531 60.28125 C 100.886719 61.128906 100.855469 61.976562 100.796875 62.820312 C 100.738281 63.664062 100.65625 64.507812 100.542969 65.347656 C 100.433594 66.1875 100.292969 67.023438 100.128906 67.855469 C 99.964844 68.6875 99.777344 69.511719 99.5625 70.332031 C 99.34375 71.152344 99.105469 71.960938 98.835938 72.765625 C 98.570312 73.570312 98.277344 74.367188 97.960938 75.152344 C 97.644531 75.9375 97.304688 76.714844 96.941406 77.480469 C 96.574219 78.246094 96.183594 78.996094 95.773438 79.738281 C 95.359375 80.480469 94.925781 81.207031 94.464844 81.917969 C 94.007812 82.632812 93.527344 83.332031 93.027344 84.015625 C 92.523438 84.699219 92 85.367188 91.457031 86.015625 C 90.910156 86.667969 90.347656 87.300781 89.765625 87.917969 C 89.179688 88.53125 88.578125 89.128906 87.957031 89.707031 C 87.335938 90.285156 86.695312 90.84375 86.039062 91.382812 C 85.382812 91.921875 84.710938 92.4375 84.023438 92.933594 C 83.332031 93.429688 82.628906 93.90625 81.910156 94.359375 L 82.207031 94.683594 C 82.933594 94.222656 83.644531 93.742188 84.339844 93.238281 C 85.035156 92.734375 85.714844 92.210938 86.378906 91.664062 C 87.039062 91.121094 87.683594 90.554688 88.3125 89.96875 C 88.941406 89.382812 89.546875 88.777344 90.136719 88.152344 C 90.726562 87.527344 91.296875 86.886719 91.84375 86.226562 C 92.394531 85.570312 92.921875 84.890625 93.429688 84.199219 C 93.933594 83.507812 94.417969 82.800781 94.882812 82.078125 C 95.34375 81.355469 95.78125 80.617188 96.199219 79.867188 C 96.613281 79.117188 97.003906 78.355469 97.371094 77.582031 C 97.742188 76.808594 98.082031 76.023438 98.402344 75.226562 C 98.722656 74.429688 99.015625 73.625 99.28125 72.808594 C 99.550781 71.996094 99.792969 71.175781 100.007812 70.34375 C 100.222656 69.515625 100.414062 68.679688 100.578125 67.839844 C 100.742188 66.996094 100.878906 66.152344 100.988281 65.300781 C 101.101562 64.453125 101.183594 63.601562 101.242188 62.746094 C 101.296875 61.890625 101.328125 61.035156 101.332031 60.175781 C 101.335938 59.320312 101.3125 58.464844 101.261719 57.609375 C 101.210938 56.753906 101.132812 55.898438 101.027344 55.050781 C 100.925781 54.199219 100.792969 53.351562 100.636719 52.511719 C 100.480469 51.667969 100.296875 50.832031 100.085938 50 C 99.875 49.167969 99.640625 48.34375 99.378906 47.53125 C 99.117188 46.714844 98.828125 45.90625 98.515625 45.109375 C 98.203125 44.308594 97.867188 43.519531 97.503906 42.742188 C 97.144531 41.96875 96.757812 41.203125 96.347656 40.449219 C 95.9375 39.695312 95.503906 38.957031 95.046875 38.230469 C 94.589844 37.503906 94.109375 36.792969 93.609375 36.097656 C 93.109375 35.398438 92.585938 34.71875 92.042969 34.054688 C 91.5 33.390625 90.933594 32.746094 90.347656 32.117188 C 89.765625 31.488281 89.160156 30.878906 88.539062 30.289062 C 87.914062 29.699219 87.273438 29.128906 86.617188 28.578125 C 85.957031 28.027344 85.28125 27.496094 84.589844 26.988281 C 83.898438 26.480469 83.191406 25.992188 82.46875 25.527344 Z M 82.457031 25.527344 " fill-opacity="1" fill-rule="nonzero"/></g><g clip-path="url(#1370793ef8)"><path fill="#f0f8ff" d="M 37.875 94.585938 L 38.144531 94.242188 C 37.429688 93.789062 36.730469 93.3125 36.046875 92.8125 C 35.359375 92.316406 34.691406 91.796875 34.039062 91.257812 C 33.386719 90.714844 32.753906 90.15625 32.136719 89.578125 C 31.519531 88.996094 30.921875 88.398438 30.339844 87.78125 C 29.761719 87.164062 29.203125 86.53125 28.660156 85.878906 C 28.121094 85.230469 27.601562 84.5625 27.105469 83.878906 C 26.605469 83.191406 26.128906 82.496094 25.675781 81.78125 C 25.222656 81.066406 24.789062 80.339844 24.382812 79.601562 C 23.972656 78.859375 23.585938 78.109375 23.226562 77.34375 C 22.863281 76.578125 22.527344 75.804688 22.214844 75.019531 C 21.898438 74.234375 21.613281 73.441406 21.347656 72.636719 C 21.085938 71.832031 20.847656 71.023438 20.632812 70.203125 C 20.421875 69.386719 20.234375 68.5625 20.074219 67.734375 C 19.914062 66.902344 19.777344 66.070312 19.667969 65.230469 C 19.558594 64.394531 19.476562 63.554688 19.421875 62.710938 C 19.363281 61.867188 19.335938 61.023438 19.332031 60.175781 C 19.328125 59.332031 19.351562 58.488281 19.402344 57.644531 C 19.449219 56.800781 19.527344 55.960938 19.628906 55.121094 C 19.730469 54.28125 19.859375 53.449219 20.015625 52.617188 C 20.167969 51.785156 20.347656 50.960938 20.554688 50.140625 C 20.761719 49.320312 20.992188 48.507812 21.25 47.703125 C 21.507812 46.898438 21.789062 46.101562 22.097656 45.3125 C 22.402344 44.527344 22.734375 43.75 23.089844 42.980469 C 23.445312 42.214844 23.824219 41.460938 24.230469 40.714844 C 24.632812 39.972656 25.058594 39.242188 25.507812 38.527344 C 25.953125 37.808594 26.425781 37.105469 26.917969 36.417969 C 27.410156 35.730469 27.925781 35.058594 28.460938 34.402344 C 28.996094 33.746094 29.550781 33.109375 30.125 32.488281 C 30.699219 31.867188 31.292969 31.265625 31.90625 30.679688 C 32.515625 30.09375 33.148438 29.53125 33.796875 28.984375 C 34.445312 28.441406 35.109375 27.914062 35.789062 27.414062 C 36.46875 26.910156 37.164062 26.425781 37.875 25.964844 C 37.835938 25.820312 37.796875 25.671875 37.761719 25.535156 C 37.039062 26 36.335938 26.484375 35.644531 26.992188 C 34.953125 27.5 34.28125 28.027344 33.621094 28.578125 C 32.964844 29.125 32.324219 29.695312 31.703125 30.285156 C 31.082031 30.871094 30.480469 31.480469 29.894531 32.105469 C 29.3125 32.734375 28.75 33.378906 28.203125 34.039062 C 27.660156 34.703125 27.140625 35.378906 26.640625 36.074219 C 26.136719 36.769531 25.660156 37.476562 25.203125 38.199219 C 24.746094 38.925781 24.3125 39.664062 23.902344 40.414062 C 23.492188 41.164062 23.109375 41.925781 22.746094 42.703125 C 22.382812 43.476562 22.046875 44.261719 21.734375 45.058594 C 21.417969 45.855469 21.132812 46.660156 20.871094 47.472656 C 20.605469 48.289062 20.371094 49.109375 20.160156 49.9375 C 19.949219 50.765625 19.765625 51.601562 19.605469 52.441406 C 19.445312 53.28125 19.316406 54.125 19.207031 54.976562 C 19.101562 55.824219 19.023438 56.675781 18.972656 57.527344 C 18.917969 58.382812 18.894531 59.234375 18.894531 60.089844 C 18.898438 60.945312 18.925781 61.800781 18.980469 62.652344 C 19.035156 63.507812 19.117188 64.355469 19.222656 65.203125 C 19.332031 66.054688 19.464844 66.898438 19.628906 67.738281 C 19.789062 68.578125 19.976562 69.410156 20.191406 70.238281 C 20.402344 71.066406 20.640625 71.886719 20.90625 72.699219 C 21.171875 73.515625 21.460938 74.316406 21.777344 75.113281 C 22.09375 75.910156 22.433594 76.691406 22.796875 77.46875 C 23.160156 78.242188 23.550781 79.003906 23.960938 79.753906 C 24.375 80.503906 24.808594 81.238281 25.269531 81.960938 C 25.726562 82.683594 26.207031 83.390625 26.710938 84.085938 C 27.210938 84.777344 27.734375 85.453125 28.28125 86.113281 C 28.828125 86.773438 29.390625 87.417969 29.976562 88.042969 C 30.5625 88.667969 31.167969 89.273438 31.789062 89.859375 C 32.414062 90.449219 33.054688 91.015625 33.714844 91.5625 C 34.375 92.109375 35.050781 92.636719 35.742188 93.140625 C 36.433594 93.644531 37.140625 94.128906 37.863281 94.589844 Z M 37.875 94.585938 " fill-opacity="1" fill-rule="nonzero"/></g><g fill="#f0f8ff" fill-opacity="1"><g transform="translate(48.474315, 66.172753)"><g><path d="M 20.84375 -2.890625 C 20.34375 -3.023438 19.84375 -3.15625 19.34375 -3.28125 C 18.84375 -3.40625 18.332031 -3.523438 17.8125 -3.640625 C 17.195312 -2.378906 16.546875 -1.148438 15.859375 0.046875 C 15.171875 1.253906 14.441406 2.441406 13.671875 3.609375 C 13.078125 4.503906 12.414062 5.378906 11.6875 6.234375 C 10.957031 7.085938 10.1875 7.890625 9.375 8.640625 C 8.5625 9.398438 7.71875 10.097656 6.84375 10.734375 C 5.96875 11.367188 5.085938 11.914062 4.203125 12.375 C 3.316406 12.84375 2.4375 13.203125 1.5625 13.453125 C 0.6875 13.703125 -0.15625 13.828125 -0.96875 13.828125 C -1.707031 13.828125 -2.453125 13.695312 -3.203125 13.4375 C -3.953125 13.1875 -4.625 12.800781 -5.21875 12.28125 C -5.8125 11.757812 -6.296875 11.109375 -6.671875 10.328125 C -7.046875 9.554688 -7.234375 8.644531 -7.234375 7.59375 C -7.234375 7.050781 -7.171875 6.476562 -7.046875 5.875 C -6.921875 5.269531 -6.710938 4.648438 -6.421875 4.015625 C -6.128906 3.378906 -5.753906 2.722656 -5.296875 2.046875 C -4.835938 1.378906 -4.273438 0.695312 -3.609375 0 C -2.734375 -0.925781 -1.75 -1.726562 -0.65625 -2.40625 C 0.425781 -3.082031 1.582031 -3.640625 2.8125 -4.078125 C 4.050781 -4.515625 5.335938 -4.835938 6.671875 -5.046875 C 8.003906 -5.265625 9.359375 -5.375 10.734375 -5.375 C 11.640625 -5.375 12.539062 -5.328125 13.4375 -5.234375 C 14.34375 -5.148438 15.242188 -5.03125 16.140625 -4.875 C 16.785156 -6.207031 17.363281 -7.53125 17.875 -8.84375 C 18.394531 -10.15625 18.847656 -11.453125 19.234375 -12.734375 C 19.816406 -14.679688 20.234375 -16.375 20.484375 -17.8125 C 20.734375 -19.25 20.859375 -20.488281 20.859375 -21.53125 C 20.859375 -22.425781 20.785156 -23.195312 20.640625 -23.84375 C 20.503906 -24.488281 20.320312 -25.035156 20.09375 -25.484375 C 19.863281 -25.941406 19.597656 -26.3125 19.296875 -26.59375 C 18.992188 -26.875 18.6875 -27.085938 18.375 -27.234375 C 18.070312 -27.390625 17.769531 -27.492188 17.46875 -27.546875 C 17.175781 -27.597656 16.914062 -27.625 16.6875 -27.625 C 15.726562 -27.625 14.867188 -27.394531 14.109375 -26.9375 C 13.347656 -26.476562 12.703125 -25.832031 12.171875 -25 C 11.648438 -24.175781 11.25 -23.175781 10.96875 -22 C 10.695312 -20.820312 10.5625 -19.515625 10.5625 -18.078125 C 10.5625 -16.960938 10.65625 -15.925781 10.84375 -14.96875 C 11.039062 -14.019531 11.28125 -13.148438 11.5625 -12.359375 C 11.851562 -11.578125 12.171875 -10.882812 12.515625 -10.28125 C 12.859375 -9.6875 13.175781 -9.179688 13.46875 -8.765625 C 13.769531 -8.359375 14.015625 -8.046875 14.203125 -7.828125 C 14.398438 -7.609375 14.503906 -7.5 14.515625 -7.5 L 13.953125 -6.921875 C 13.179688 -7.585938 12.457031 -8.320312 11.78125 -9.125 C 11.113281 -9.9375 10.53125 -10.804688 10.03125 -11.734375 C 9.539062 -12.660156 9.148438 -13.644531 8.859375 -14.6875 C 8.566406 -15.726562 8.421875 -16.820312 8.421875 -17.96875 C 8.421875 -19.269531 8.609375 -20.550781 8.984375 -21.8125 C 9.359375 -23.082031 9.898438 -24.222656 10.609375 -25.234375 C 11.328125 -26.242188 12.203125 -27.054688 13.234375 -27.671875 C 14.273438 -28.285156 15.457031 -28.59375 16.78125 -28.59375 C 17.082031 -28.59375 17.429688 -28.5625 17.828125 -28.5 C 18.222656 -28.4375 18.628906 -28.3125 19.046875 -28.125 C 19.472656 -27.9375 19.894531 -27.671875 20.3125 -27.328125 C 20.726562 -26.992188 21.09375 -26.546875 21.40625 -25.984375 C 21.726562 -25.429688 21.988281 -24.742188 22.1875 -23.921875 C 22.394531 -23.109375 22.5 -22.140625 22.5 -21.015625 C 22.5 -20.492188 22.472656 -19.941406 22.421875 -19.359375 C 22.367188 -18.773438 22.296875 -18.144531 22.203125 -17.46875 C 21.867188 -15.226562 21.363281 -13.023438 20.6875 -10.859375 C 20.007812 -8.691406 19.179688 -6.5625 18.203125 -4.46875 C 18.710938 -4.351562 19.207031 -4.234375 19.6875 -4.109375 C 20.175781 -3.992188 20.65625 -3.875 21.125 -3.75 Z M -1 12.890625 C -0.09375 12.941406 0.847656 12.765625 1.828125 12.359375 C 2.804688 11.960938 3.785156 11.390625 4.765625 10.640625 C 5.753906 9.890625 6.738281 8.984375 7.71875 7.921875 C 8.707031 6.859375 9.664062 5.691406 10.59375 4.421875 C 11.53125 3.160156 12.429688 1.816406 13.296875 0.390625 C 14.160156 -1.023438 14.96875 -2.484375 15.71875 -3.984375 C 15.101562 -4.066406 14.488281 -4.128906 13.875 -4.171875 C 13.269531 -4.222656 12.644531 -4.25 12 -4.25 C 10.125 -4.25 8.382812 -4.035156 6.78125 -3.609375 C 5.1875 -3.191406 3.734375 -2.632812 2.421875 -1.9375 C 1.117188 -1.238281 -0.03125 -0.4375 -1.03125 0.46875 C -2.03125 1.375 -2.867188 2.304688 -3.546875 3.265625 C -4.222656 4.222656 -4.734375 5.175781 -5.078125 6.125 C -5.429688 7.070312 -5.609375 7.9375 -5.609375 8.71875 C -5.609375 9.332031 -5.5 9.894531 -5.28125 10.40625 C -5.070312 10.914062 -4.769531 11.351562 -4.375 11.71875 C -3.988281 12.09375 -3.507812 12.378906 -2.9375 12.578125 C -2.363281 12.785156 -1.71875 12.890625 -1 12.890625 Z M -1 12.890625 "/></g></g></g></svg>